<svg id="visual" viewBox="0 0 960 540" width="960" height="540" xmlns="http://www.w3.org/2000/svg" xmlns:xlink="http://www.w3.org/1999/xlink" version="1.1"><rect x="0" y="0" width="960" height="540" fill="#fff"></rect><path d="M0 284L22.8 298.2C45.7 312.3 91.3 340.7 137 355.8C182.7 371 228.3 373 274 371.3C319.7 369.7 365.3 364.3 411.2 361.3C457 358.3 503 357.7 548.8 356.3C594.7 355 640.3 353 686 344.8C731.7 336.7 777.3 322.3 823 314.7C868.7 307 914.3 306 937.2 305.5L960 305L960 541L937.2 541C914.3 541 868.7 541 823 541C777.3 541 731.7 541 686 541C640.3 541 594.7 541 548.8 541C503 541 457 541 411.2 541C365.3 541 319.7 541 274 541C228.3 541 182.7 541 137 541C91.3 541 45.7 541 22.8 541L0 541Z" fill="#e4f4e4"></path><path d="M0 324L22.8 330.8C45.7 337.7 91.3 351.3 137 365.8C182.7 380.3 228.3 395.7 274 389C319.7 382.3 365.3 353.7 411.2 341.2C457 328.7 503 332.3 548.8 342C594.7 351.7 640.3 367.3 686 377C731.7 386.7 777.3 390.3 823 394.5C868.7 398.7 914.3 403.3 937.2 405.7L960 408L960 541L937.2 541C914.3 541 868.7 541 823 541C777.3 541 731.7 541 686 541C640.3 541 594.7 541 548.8 541C503 541 457 541 411.2 541C365.3 541 319.7 541 274 541C228.3 541 182.7 541 137 541C91.3 541 45.7 541 22.8 541L0 541Z" fill="#b9d6b8"></path><path d="M0 441L22.8 431.8C45.7 422.7 91.3 404.3 137 397.3C182.7 390.3 228.3 394.7 274 395C319.7 395.3 365.3 391.7 411.2 389C457 386.3 503 384.7 548.8 393.2C594.7 401.7 640.3 420.3 686 419.3C731.7 418.3 777.3 397.7 823 389.5C868.7 381.3 914.3 385.7 937.2 387.8L960 390L960 541L937.2 541C914.3 541 868.7 541 823 541C777.3 541 731.7 541 686 541C640.3 541 594.7 541 548.8 541C503 541 457 541 411.2 541C365.3 541 319.7 541 274 541C228.3 541 182.7 541 137 541C91.3 541 45.7 541 22.8 541L0 541Z" fill="#8fb98d"></path><path d="M0 417L22.8 424.3C45.7 431.7 91.3 446.3 137 456.5C182.7 466.7 228.3 472.3 274 475C319.7 477.7 365.3 477.3 411.2 466.7C457 456 503 435 548.8 431.5C594.7 428 640.3 442 686 446.3C731.7 450.7 777.3 445.3 823 445C868.7 444.7 914.3 449.3 937.2 451.7L960 454L960 541L937.2 541C914.3 541 868.7 541 823 541C777.3 541 731.7 541 686 541C640.3 541 594.7 541 548.8 541C503 541 457 541 411.2 541C365.3 541 319.7 541 274 541C228.3 541 182.7 541 137 541C91.3 541 45.7 541 22.8 541L0 541Z" fill="#669c63"></path><path d="M0 478L22.8 480.2C45.7 482.3 91.3 486.7 137 491.3C182.7 496 228.3 501 274 497.7C319.7 494.3 365.3 482.7 411.2 477.2C457 471.7 503 472.3 548.8 474C594.7 475.7 640.3 478.3 686 481.5C731.7 484.7 777.3 488.3 823 491.5C868.7 494.7 914.3 497.3 937.2 498.7L960 500L960 541L937.2 541C914.3 541 868.7 541 823 541C777.3 541 731.7 541 686 541C640.3 541 594.7 541 548.8 541C503 541 457 541 411.2 541C365.3 541 319.7 541 274 541C228.3 541 182.7 541 137 541C91.3 541 45.7 541 22.8 541L0 541Z" fill="#3d7f3a"></path></svg>